<svg width="40" height="40" viewBox="0 0 40 40" fill="none" xmlns="http://www.w3.org/2000/svg">
<path fill-rule="evenodd" clip-rule="evenodd" d="M9.77255 10.6034C11.2392 9.05842 11.7575 8.62508 12.3825 8.42342C12.8151 8.31008 13.2687 8.30379 13.7042 8.40508C14.2775 8.57175 14.4292 8.69842 16.3092 10.5717C17.9609 12.2167 18.1259 12.3951 18.2842 12.7167C18.587 13.2814 18.6343 13.9484 18.4142 14.5501C18.2475 15.0084 18.0109 15.3117 17.0092 16.3167L16.3559 16.9717C16.1843 17.1461 16.144 17.4109 16.2559 17.6284C17.7074 20.1048 19.7668 22.17 22.2392 23.6284C22.5238 23.7808 22.8743 23.7316 23.1059 23.5067L23.7342 22.8884C24.1226 22.4903 24.5338 22.1153 24.9659 21.7651C25.6445 21.3484 26.49 21.3113 27.2025 21.6668C27.5509 21.8334 27.6659 21.9368 29.3692 23.6368C31.1259 25.3884 31.1759 25.4434 31.3692 25.8451C31.733 26.51 31.7292 27.3153 31.3592 27.9768C31.1709 28.3501 31.0559 28.4851 30.0675 29.4951C29.4709 30.1051 28.9092 30.6618 28.8192 30.7434C28.0039 31.4185 26.9578 31.7496 25.9025 31.6668C23.9718 31.4908 22.103 30.894 20.4275 29.9184C16.7161 27.9521 13.5565 25.087 11.2375 21.5851C10.7325 20.8522 10.2834 20.0822 9.89421 19.2818C8.85018 17.4924 8.31104 15.4533 8.33421 13.3817C8.41392 12.298 8.93364 11.2941 9.77255 10.6034Z" stroke="white" stroke-width="1.5" stroke-linecap="round" stroke-linejoin="round"/>
</svg>
