<svg width="40" height="34" viewBox="0 0 40 34" fill="none" xmlns="http://www.w3.org/2000/svg">
<g clip-path="url(#clip0_155407_90)">
<path d="M31.1667 7H8.61111C8.18382 7 7.77403 7.16974 7.47188 7.47188C7.16974 7.77403 7 8.18382 7 8.61111V24.7222C7 25.1495 7.16974 25.5593 7.47188 25.8615C7.77403 26.1636 8.18382 26.3333 8.61111 26.3333H31.1667C31.594 26.3333 32.0038 26.1636 32.3059 25.8615C32.608 25.5593 32.7778 25.1495 32.7778 24.7222V8.61111C32.7778 8.18382 32.608 7.77403 32.3059 7.47188C32.0038 7.16974 31.594 7 31.1667 7V7ZM29.9261 24.7222H9.94833L15.5872 18.89L14.4272 17.7703L8.61111 23.7878V9.83556L18.6242 19.8003C18.926 20.1003 19.3344 20.2688 19.76 20.2688C20.1856 20.2688 20.594 20.1003 20.8958 19.8003L31.1667 9.58583V23.6831L25.2378 17.7542L24.1019 18.89L29.9261 24.7222ZM9.66639 8.61111H29.8617L19.76 18.6564L9.66639 8.61111Z" fill="white"/>
</g>
<defs>
<clipPath id="clip0_155407_90">
<rect width="40" height="33.0435" fill="white"/>
</clipPath>
</defs>
</svg>
