<svg width="317" height="53" viewBox="0 0 317 53" fill="none" xmlns="http://www.w3.org/2000/svg">
<path d="M10.688 17.232H17.472C18.432 17.232 19.2 17.2533 19.776 17.296C20.3733 17.3387 21.0027 17.4347 21.664 17.584C22.3467 17.7333 22.8907 17.9573 23.296 18.256C23.7227 18.5547 24.0853 18.96 24.384 19.472C24.6613 19.9627 24.8 20.5813 24.8 21.328V25.648C24.8 27.376 24.128 28.624 22.784 29.392C21.4613 30.1387 19.4987 30.512 16.896 30.512H13.792V38H10.688V17.232ZM17.312 28.56C18.656 28.56 19.7333 28.3147 20.544 27.824C21.3547 27.3333 21.76 26.5547 21.76 25.488V21.712C21.76 21.136 21.6107 20.6667 21.312 20.304C21.0133 19.92 20.5867 19.6533 20.032 19.504C19.4987 19.376 19.0507 19.2907 18.688 19.248C18.3253 19.2053 17.8453 19.184 17.248 19.184H13.76V28.56H17.312ZM28.746 15.6H31.626V24.4C31.9247 22.928 33.6207 22.192 36.714 22.192C38.698 22.192 40.0847 22.5547 40.874 23.28C41.6847 23.984 42.09 25.104 42.09 26.64V38H39.21V26.832C39.21 26.4267 39.178 26.096 39.114 25.84C39.05 25.584 38.922 25.328 38.73 25.072C38.3033 24.5387 37.354 24.272 35.882 24.272C34.7087 24.272 33.8127 24.3573 33.194 24.528C32.5967 24.6773 32.1807 24.9333 31.946 25.296C31.7327 25.6587 31.626 26.1707 31.626 26.832V38H28.746V15.6ZM53.6498 38.32C52.2844 38.32 51.2604 38.2667 50.5778 38.16C49.8951 38.0747 49.2124 37.872 48.5298 37.552C47.8258 37.232 47.3138 36.72 46.9938 36.016C46.6738 35.2907 46.5138 34.32 46.5138 33.104V27.728C46.5138 26.768 46.6311 25.9253 46.8658 25.2C47.1004 24.4747 47.4098 23.9093 47.7938 23.504C48.1138 23.1413 48.5938 22.864 49.2338 22.672C49.8951 22.4587 50.5671 22.32 51.2498 22.256C52.0178 22.2133 52.8178 22.192 53.6498 22.192C54.7591 22.192 55.5911 22.224 56.1458 22.288C56.7218 22.3307 57.3298 22.4373 57.9698 22.608C58.6311 22.8 59.1431 23.088 59.5058 23.472C59.8684 23.856 60.1778 24.4107 60.4338 25.136C60.6684 25.8827 60.7858 26.7467 60.7858 27.728V33.104C60.7858 34.9173 60.3698 36.24 59.5378 37.072C59.1964 37.4133 58.7058 37.68 58.0658 37.872C57.4258 38.064 56.7644 38.192 56.0818 38.256C55.2711 38.2987 54.4604 38.32 53.6498 38.32ZM53.6498 36.432C54.5458 36.432 55.1964 36.4107 55.6018 36.368C56.0071 36.3253 56.4018 36.208 56.7858 36.016C57.1698 35.8453 57.4364 35.568 57.5858 35.184C57.7564 34.7787 57.8418 34.224 57.8418 33.52V27.248C57.8418 26.288 57.7244 25.5947 57.4898 25.168C57.2551 24.72 56.8498 24.432 56.2738 24.304C55.7191 24.1547 54.8444 24.08 53.6498 24.08C52.4551 24.08 51.5698 24.1547 50.9938 24.304C50.4391 24.432 50.0444 24.72 49.8098 25.168C49.5751 25.5947 49.4578 26.288 49.4578 27.248V33.52C49.4578 34.224 49.5324 34.7787 49.6818 35.184C49.8524 35.568 50.1298 35.8453 50.5138 36.016C50.8978 36.208 51.2924 36.3253 51.6978 36.368C52.1031 36.4107 52.7538 36.432 53.6498 36.432ZM71.7733 38.32C70.4506 38.32 69.4159 38.1813 68.6693 37.904C67.9226 37.6053 67.3786 37.1147 67.0373 36.432C66.7173 35.728 66.5573 34.7467 66.5573 33.488V24.4H63.1013V22.512H66.5573V17.712H69.4693V22.512H75.0053V24.4H69.4693V33.648C69.4693 34.416 69.5546 34.992 69.7253 35.376C69.9173 35.76 70.2373 36.0373 70.6853 36.208C71.1546 36.3573 71.8266 36.432 72.7013 36.432C72.9786 36.432 73.7466 36.3467 75.0053 36.176V38.064C73.9173 38.2347 72.8399 38.32 71.7733 38.32ZM84.7123 38.32C83.3469 38.32 82.3229 38.2667 81.6403 38.16C80.9576 38.0747 80.2749 37.872 79.5923 37.552C78.8883 37.232 78.3763 36.72 78.0563 36.016C77.7363 35.2907 77.5763 34.32 77.5763 33.104V27.728C77.5763 26.768 77.6936 25.9253 77.9283 25.2C78.1629 24.4747 78.4723 23.9093 78.8563 23.504C79.1763 23.1413 79.6563 22.864 80.2963 22.672C80.9576 22.4587 81.6296 22.32 82.3123 22.256C83.0803 22.2133 83.8803 22.192 84.7123 22.192C85.8216 22.192 86.6536 22.224 87.2083 22.288C87.7843 22.3307 88.3923 22.4373 89.0323 22.608C89.6936 22.8 90.2056 23.088 90.5683 23.472C90.9309 23.856 91.2403 24.4107 91.4963 25.136C91.7309 25.8827 91.8483 26.7467 91.8483 27.728V33.104C91.8483 34.9173 91.4323 36.24 90.6003 37.072C90.2589 37.4133 89.7683 37.68 89.1283 37.872C88.4883 38.064 87.8269 38.192 87.1443 38.256C86.3336 38.2987 85.5229 38.32 84.7123 38.32ZM84.7123 36.432C85.6083 36.432 86.2589 36.4107 86.6643 36.368C87.0696 36.3253 87.4643 36.208 87.8483 36.016C88.2323 35.8453 88.4989 35.568 88.6483 35.184C88.8189 34.7787 88.9043 34.224 88.9043 33.52V27.248C88.9043 26.288 88.7869 25.5947 88.5523 25.168C88.3176 24.72 87.9123 24.432 87.3363 24.304C86.7816 24.1547 85.9069 24.08 84.7123 24.08C83.5176 24.08 82.6323 24.1547 82.0563 24.304C81.5016 24.432 81.1069 24.72 80.8723 25.168C80.6376 25.5947 80.5203 26.288 80.5203 27.248V33.52C80.5203 34.224 80.5949 34.7787 80.7443 35.184C80.9149 35.568 81.1923 35.8453 81.5763 36.016C81.9603 36.208 82.3549 36.3253 82.7603 36.368C83.1656 36.4107 83.8163 36.432 84.7123 36.432ZM112.003 38.32C106.179 38.32 103.267 36.4427 103.267 32.688V22.832C103.267 18.864 106.179 16.88 112.003 16.88C113.987 16.88 115.885 17.0827 117.699 17.488V19.792C115.651 19.28 113.773 19.024 112.067 19.024C111.235 19.024 110.509 19.0773 109.891 19.184C109.272 19.2693 108.675 19.4293 108.099 19.664C106.861 20.1973 106.243 21.2427 106.243 22.8V32.528C106.243 34.9173 108.227 36.112 112.195 36.112C113.901 36.112 115.779 35.856 117.827 35.344V37.712C116.013 38.1173 114.072 38.32 112.003 38.32ZM121.777 22.512H124.497V25.04C124.497 24.5493 124.711 24.0907 125.137 23.664C125.564 23.216 126.108 22.864 126.769 22.608C127.431 22.3307 128.081 22.192 128.721 22.192H130.129V24.656H128.529C127.164 24.656 126.172 24.8373 125.553 25.2C124.956 25.5413 124.657 26.1707 124.657 27.088V38H121.777V22.512ZM139.524 38.32C134.788 38.32 132.42 36.7413 132.42 33.584V27.472C132.42 25.5947 132.953 24.2507 134.02 23.44C135.108 22.608 136.857 22.192 139.268 22.192C141.551 22.192 143.193 22.5867 144.196 23.376C145.22 24.1653 145.732 25.5307 145.732 27.472V30.896H135.332V33.232C135.332 34.2987 135.705 35.0667 136.452 35.536C137.199 36.0053 138.351 36.24 139.908 36.24C141.38 36.24 143.119 35.984 145.124 35.472V37.68C143.161 38.1067 141.295 38.32 139.524 38.32ZM142.852 29.008V26.576C142.852 25.6373 142.564 24.9973 141.988 24.656C141.433 24.2933 140.473 24.112 139.108 24.112C137.785 24.112 136.825 24.2933 136.228 24.656C135.631 24.9973 135.332 25.6373 135.332 26.576V29.008H142.852ZM154.889 38.32C153.417 38.32 152.276 38.1813 151.465 37.904C150.676 37.6267 150.1 37.136 149.737 36.432C149.396 35.728 149.225 34.7147 149.225 33.392C149.225 32.2187 149.385 31.312 149.705 30.672C150.046 30.0107 150.612 29.5413 151.401 29.264C152.212 28.9867 153.353 28.848 154.825 28.848H159.465V26.384C159.465 25.808 159.348 25.3707 159.113 25.072C158.9 24.752 158.526 24.528 157.993 24.4C157.481 24.272 156.724 24.208 155.721 24.208C154.121 24.208 152.35 24.336 150.409 24.592V22.48C152.521 22.288 154.43 22.192 156.137 22.192C157.929 22.192 159.252 22.3307 160.105 22.608C160.958 22.864 161.545 23.3227 161.865 23.984C162.185 24.6453 162.345 25.6693 162.345 27.056V38H159.561V36.528C159.326 37.7227 157.769 38.32 154.889 38.32ZM155.369 36.432C156.414 36.432 157.3 36.3573 158.025 36.208C158.985 36.016 159.465 35.568 159.465 34.864V30.64H155.017C154.1 30.64 153.438 30.7147 153.033 30.864C152.628 30.992 152.361 31.248 152.233 31.632C152.105 32.016 152.041 32.6347 152.041 33.488C152.041 34.256 152.116 34.8533 152.265 35.28C152.414 35.6853 152.681 35.984 153.065 36.176C153.449 36.3467 154.025 36.432 154.793 36.432H155.369ZM173.836 38.32C172.513 38.32 171.478 38.1813 170.732 37.904C169.985 37.6053 169.441 37.1147 169.1 36.432C168.78 35.728 168.62 34.7467 168.62 33.488V24.4H165.164V22.512H168.62V17.712H171.532V22.512H177.068V24.4H171.532V33.648C171.532 34.416 171.617 34.992 171.788 35.376C171.98 35.76 172.3 36.0373 172.748 36.208C173.217 36.3573 173.889 36.432 174.764 36.432C175.041 36.432 175.809 36.3467 177.068 36.176V38.064C175.98 38.2347 174.902 38.32 173.836 38.32ZM186.775 38.32C185.409 38.32 184.385 38.2667 183.703 38.16C183.02 38.0747 182.337 37.872 181.655 37.552C180.951 37.232 180.439 36.72 180.119 36.016C179.799 35.2907 179.639 34.32 179.639 33.104V27.728C179.639 26.768 179.756 25.9253 179.991 25.2C180.225 24.4747 180.535 23.9093 180.919 23.504C181.239 23.1413 181.719 22.864 182.359 22.672C183.02 22.4587 183.692 22.32 184.375 22.256C185.143 22.2133 185.943 22.192 186.775 22.192C187.884 22.192 188.716 22.224 189.271 22.288C189.847 22.3307 190.455 22.4373 191.095 22.608C191.756 22.8 192.268 23.088 192.631 23.472C192.993 23.856 193.303 24.4107 193.559 25.136C193.793 25.8827 193.911 26.7467 193.911 27.728V33.104C193.911 34.9173 193.495 36.24 192.663 37.072C192.321 37.4133 191.831 37.68 191.191 37.872C190.551 38.064 189.889 38.192 189.207 38.256C188.396 38.2987 187.585 38.32 186.775 38.32ZM186.775 36.432C187.671 36.432 188.321 36.4107 188.727 36.368C189.132 36.3253 189.527 36.208 189.911 36.016C190.295 35.8453 190.561 35.568 190.711 35.184C190.881 34.7787 190.967 34.224 190.967 33.52V27.248C190.967 26.288 190.849 25.5947 190.615 25.168C190.38 24.72 189.975 24.432 189.399 24.304C188.844 24.1547 187.969 24.08 186.775 24.08C185.58 24.08 184.695 24.1547 184.119 24.304C183.564 24.432 183.169 24.72 182.935 25.168C182.7 25.5947 182.583 26.288 182.583 27.248V33.52C182.583 34.224 182.657 34.7787 182.807 35.184C182.977 35.568 183.255 35.8453 183.639 36.016C184.023 36.208 184.417 36.3253 184.823 36.368C185.228 36.4107 185.879 36.432 186.775 36.432ZM198.402 22.512H201.122V25.04C201.122 24.5493 201.336 24.0907 201.762 23.664C202.189 23.216 202.733 22.864 203.394 22.608C204.056 22.3307 204.706 22.192 205.346 22.192H206.754V24.656H205.154C203.789 24.656 202.797 24.8373 202.178 25.2C201.581 25.5413 201.282 26.1707 201.282 27.088V38H198.402V22.512ZM223.172 38.32C221.401 38.32 219.289 38.1493 216.836 37.808V35.216C219.311 35.7493 221.487 36.016 223.364 36.016C224.943 36.016 226.095 35.8453 226.82 35.504C227.545 35.1413 227.908 34.48 227.908 33.52V30.832C227.908 29.936 227.652 29.3067 227.14 28.944C226.628 28.5813 225.732 28.4 224.452 28.4H222.02C219.993 28.4 218.553 27.9947 217.7 27.184C216.847 26.3733 216.42 25.1147 216.42 23.408V21.744C216.42 20.6133 216.665 19.696 217.156 18.992C217.668 18.288 218.511 17.7653 219.684 17.424C220.879 17.0827 222.511 16.912 224.58 16.912C225.967 16.912 227.748 17.0293 229.924 17.264V19.6C227.492 19.2373 225.636 19.056 224.356 19.056C222.372 19.056 221.06 19.248 220.42 19.632C219.759 20.0373 219.428 20.7093 219.428 21.648V24.016C219.428 24.7413 219.684 25.2747 220.196 25.616C220.729 25.936 221.636 26.096 222.916 26.096H225.412C226.841 26.096 227.951 26.2667 228.74 26.608C229.551 26.9493 230.116 27.472 230.436 28.176C230.777 28.8587 230.948 29.7867 230.948 30.96V32.464C230.948 33.936 230.671 35.0987 230.116 35.952C229.583 36.8053 228.751 37.4133 227.62 37.776C226.489 38.1387 225.007 38.32 223.172 38.32ZM241.711 38.32C240.388 38.32 239.353 38.1813 238.607 37.904C237.86 37.6053 237.316 37.1147 236.975 36.432C236.655 35.728 236.495 34.7467 236.495 33.488V24.4H233.039V22.512H236.495V17.712H239.407V22.512H244.943V24.4H239.407V33.648C239.407 34.416 239.492 34.992 239.663 35.376C239.855 35.76 240.175 36.0373 240.623 36.208C241.092 36.3573 241.764 36.432 242.639 36.432C242.916 36.432 243.684 36.3467 244.943 36.176V38.064C243.855 38.2347 242.777 38.32 241.711 38.32ZM253.466 38.32C251.482 38.32 250.084 37.968 249.274 37.264C248.484 36.5387 248.09 35.408 248.09 33.872V22.512H250.97V33.712C250.97 34.1173 251.002 34.448 251.066 34.704C251.151 34.9387 251.29 35.184 251.482 35.44C251.866 35.9947 252.804 36.272 254.298 36.272C255.876 36.272 256.986 36.1227 257.626 35.824C258.244 35.5253 258.554 34.9813 258.554 34.192V22.512H261.434V38H258.554V36.112C258.276 37.584 256.58 38.32 253.466 38.32ZM271.97 38.32C270.434 38.32 269.228 38.1707 268.354 37.872C267.479 37.552 266.839 37.04 266.434 36.336C266.05 35.632 265.858 34.6507 265.858 33.392V26.576C265.858 25.0187 266.338 23.8987 267.298 23.216C268.279 22.5333 269.89 22.192 272.13 22.192C273.474 22.192 274.626 22.3627 275.586 22.704C276.567 23.0453 277.068 23.536 277.09 24.176H277.154L277.09 20.24V15.6H279.97V38H277.154V36.176C277.154 36.752 276.695 37.2427 275.778 37.648C274.86 38.096 273.591 38.32 271.97 38.32ZM272.578 36.336C274.178 36.336 275.33 36.1547 276.034 35.792C276.738 35.4293 277.09 34.8107 277.09 33.936V26.288C277.09 24.9013 275.671 24.208 272.834 24.208C271.127 24.208 270.018 24.336 269.506 24.592C268.972 24.848 268.706 25.4133 268.706 26.288V33.936C268.706 34.8107 268.994 35.4293 269.57 35.792C270.167 36.1547 271.17 36.336 272.578 36.336ZM284.715 16.912H287.595V19.92H284.715V16.912ZM284.715 22.512H287.595V38H284.715V22.512ZM299.15 38.32C297.784 38.32 296.76 38.2667 296.078 38.16C295.395 38.0747 294.712 37.872 294.03 37.552C293.326 37.232 292.814 36.72 292.494 36.016C292.174 35.2907 292.014 34.32 292.014 33.104V27.728C292.014 26.768 292.131 25.9253 292.366 25.2C292.6 24.4747 292.91 23.9093 293.294 23.504C293.614 23.1413 294.094 22.864 294.734 22.672C295.395 22.4587 296.067 22.32 296.75 22.256C297.518 22.2133 298.318 22.192 299.15 22.192C300.259 22.192 301.091 22.224 301.646 22.288C302.222 22.3307 302.83 22.4373 303.47 22.608C304.131 22.8 304.643 23.088 305.006 23.472C305.368 23.856 305.678 24.4107 305.934 25.136C306.168 25.8827 306.286 26.7467 306.286 27.728V33.104C306.286 34.9173 305.87 36.24 305.038 37.072C304.696 37.4133 304.206 37.68 303.566 37.872C302.926 38.064 302.264 38.192 301.582 38.256C300.771 38.2987 299.96 38.32 299.15 38.32ZM299.15 36.432C300.046 36.432 300.696 36.4107 301.102 36.368C301.507 36.3253 301.902 36.208 302.286 36.016C302.67 35.8453 302.936 35.568 303.086 35.184C303.256 34.7787 303.342 34.224 303.342 33.52V27.248C303.342 26.288 303.224 25.5947 302.99 25.168C302.755 24.72 302.35 24.432 301.774 24.304C301.219 24.1547 300.344 24.08 299.15 24.08C297.955 24.08 297.07 24.1547 296.494 24.304C295.939 24.432 295.544 24.72 295.31 25.168C295.075 25.5947 294.958 26.288 294.958 27.248V33.52C294.958 34.224 295.032 34.7787 295.182 35.184C295.352 35.568 295.63 35.8453 296.014 36.016C296.398 36.208 296.792 36.3253 297.198 36.368C297.603 36.4107 298.254 36.432 299.15 36.432Z" fill="white"/>
</svg>
